<?xml version="1.0" encoding="utf-8"?>
<!-- Generator: Adobe Illustrator 19.2.1, SVG Export Plug-In . SVG Version: 6.00 Build 0)  -->
<svg version="1.1" id="Capa_1" xmlns="http://www.w3.org/2000/svg" xmlns:xlink="http://www.w3.org/1999/xlink" x="0px" y="0px"
	 viewBox="0 0 2514.3 841.9" style="enable-background:new 0 0 2514.3 841.9;" xml:space="preserve">
<style type="text/css">
	.st0{fill:#6A9AD0;stroke:#6A9AD0;stroke-miterlimit:10;}
	.st1{fill:#FFFFFF;}
</style>
<path class="st0" d="M203.5,142.6C333.7,12.4,542.5,9,676.9,132.2l0,0C522.6-11.1,281.2-7.6,131,142.6s-153.7,391.5-10.4,545.9
	l72.5-72.5C69.9,481.6,73.3,272.8,203.5,142.6z"/>
<path class="st0" d="M615.3,699.3c-130.2,130.2-339,133.6-473.4,10.4l0,0C296.2,853,537.6,849.5,687.8,699.3s153.7-391.5,10.4-545.9
	l-72.5,72.5C748.9,360.3,745.4,569.1,615.3,699.3z"/>
<path class="st0" d="M276.7,243c81.4-81.4,211.9-83.5,295.9-6.5l0,0c-96.5-89.5-247.3-87.4-341.2,6.5s-96,244.7-6.5,341.2l45.3-45.3
	C193.2,454.9,195.4,324.3,276.7,243z"/>
<path class="st0" d="M542.1,598.9c-81.4,81.4-211.9,83.5-295.9,6.5l0,0c96.5,89.5,247.3,87.4,341.2-6.5s96-244.7,6.5-341.2
	L548.5,303C625.6,387,623.4,517.5,542.1,598.9z"/>
<g>
	<path class="st1" d="M526.4,307.3v27H334.6v79.3h154.2v27.3H334.6v106.2h-27V307.3H526.4z"/>
</g>
<g>
	<path class="st1" d="M1017.2,394.2v152.8H860.7c-22.3,0-40.3-18-40.3-40.3v-69.9h169.2v-42.6c0-7-5.7-13-13-13H820.4v-27.3h156.2
		C999.2,353.9,1017.2,371.9,1017.2,394.2z M989.5,464.2H847.7v42.6c0,7,6,13,13,13h128.9V464.2z"/>
	<path class="st1" d="M1240.3,396.9h-27.6v-2.7c0-7-6-13-13-13h-115.9c-7,0-13,6-13,13v29.6c0,7,6,13,13,13h115.9
		c22.6,0,40.6,18,40.6,40.3v29.6c0,22.3-18,40.3-40.6,40.3h-115.9c-22.3,0-40.3-18-40.3-40.3v-2.7h27.3v2.7c0,7,6,13,13,13h115.9
		c7,0,13-6,13-13v-29.6c0-7-6-13-13-13h-115.9c-22.3,0-40.3-18-40.3-40.3v-29.6c0-22.3,18-40.3,40.3-40.3h115.9
		c22.6,0,40.6,18,40.6,40.3V396.9z"/>
	<path class="st1" d="M1300.9,381.3v125.5c0,7,6,13,13,13h70.6v27.3h-70.6c-22.6,0-40.3-18-40.3-40.3V290.7h27.3v63.3h83.6v27.3
		H1300.9z"/>
	<path class="st1" d="M1865.3,307.3l-87.2,239.8h-23.6l-74.6-204.8l-74.6,204.8h-23.3l-87.2-239.8h28.6l70.3,192.5
		c21.3-58.9,48.3-132.9,69.9-192.5h32.6l70.3,192.5c21-58.9,48.3-132.9,69.6-192.5H1865.3z"/>
	<path class="st1" d="M2040.5,353.9c22.6,0,40.6,18,40.6,40.3v112.6c0,22.3-18,40.3-40.6,40.3h-115.9c-22.3,0-40.3-18-40.3-40.3
		V394.2c0-22.3,18-40.3,40.3-40.3H2040.5z M1924.6,381.3c-7,0-13,6-13,13v112.6c0,7,6,13,13,13h115.9c7.3,0,13-6,13-13V394.2
		c0-7-5.7-13-13-13H1924.6z"/>
	<path class="st1" d="M2260.6,353.9v27.3H2152c-7,0-13,6-13,13v152.8h-27.3V394.2c0-22.3,18-40.3,40.3-40.3H2260.6z"/>
	<path class="st1" d="M2475.4,353.9l-87.6,96.6l87.2,96.6h-35.6l-75.9-82.9h-53.3v82.9h-27.3V290.7h27.3v146.2h53.3l75.9-82.9
		H2475.4z"/>
</g>
<g>
	<path class="st1" d="M1234.7,595.6c-0.5,0-0.8,0.3-0.8,0.8v51.3c0,0.5,0.3,0.8,0.8,0.8h67.2v15.3h-67.2c-8.9,0-16.1-7.2-16.1-16.1
		v-51.3c0-8.9,7.2-16.1,16.1-16.1h67.2v15.3H1234.7z"/>
	<path class="st1" d="M1416.9,580.3c8.8,0,16.1,7.2,16.1,16.1v51.3c0,8.9-7.3,16.1-16.1,16.1h-51.3c-8.9,0-16.1-7.2-16.1-16.1v-51.3
		c0-8.9,7.2-16.1,16.1-16.1H1416.9z M1416.9,648.5c0.3,0,0.7-0.3,0.7-0.8v-51.3c0-0.5-0.3-0.8-0.7-0.8h-51.3c-0.5,0-0.8,0.3-0.8,0.8
		v51.3c0,0.5,0.3,0.8,0.8,0.8H1416.9z"/>
	<path class="st1" d="M1481.6,580.2h15.3v68.3h68.2v15.3h-83.5V580.2z"/>
	<path class="st1" d="M1674.7,580.3c8.8,0,16.1,7.2,16.1,16.1v51.3c0,8.9-7.3,16.1-16.1,16.1h-51.3c-8.9,0-16.1-7.2-16.1-16.1v-51.3
		c0-8.9,7.2-16.1,16.1-16.1H1674.7z M1674.7,648.5c0.3,0,0.7-0.3,0.7-0.8v-51.3c0-0.5-0.3-0.8-0.7-0.8h-51.3c-0.5,0-0.8,0.3-0.8,0.8
		v51.3c0,0.5,0.3,0.8,0.8,0.8H1674.7z"/>
	<path class="st1" d="M1816.7,580.3h16.8v83.5h-15.4v-61.2l-31.7,37.7l-31.8-37.7v61.2h-15.3v-83.5h16.7l30.4,36.2L1816.7,580.3z"/>
	<path class="st1" d="M1963.2,612.8c0,2.2-0.3,4.2-1.2,5.9c2.7,2.8,4.5,6.8,4.5,11v18c0,8.9-7.3,16.1-16.2,16.1h-67.3v-83.5h64
		c8.8,0,16.1,7.2,16.1,16.1V612.8z M1899.2,595.6c-0.5,0-0.8,0.3-0.8,0.8v16.4c0,0.5,0.3,0.8,0.8,0.8h47.9c0.3,0,0.7-0.3,0.7-0.8
		v-16.4c0-0.5-0.3-0.8-0.7-0.8H1899.2z M1951.1,629.7c0-0.5-0.3-0.7-0.8-0.7h-51.2c-0.5,0-0.8,0.2-0.8,0.7v18c0,0.5,0.3,0.8,0.8,0.8
		h51.2c0.5,0,0.8-0.3,0.8-0.8V629.7z"/>
	<path class="st1" d="M2015.1,580.3h15.3v83.5h-15.3V580.3z"/>
	<path class="st1" d="M2143.7,580.3c8.9,0,16.2,7.2,16.2,16.1v67.4h-15.4v-28.1h-52.8v28.1h-15.3v-67.4c0-8.9,7.2-16.1,16.1-16.1
		H2143.7z M2144.5,620.5v-24c0-0.5-0.3-0.8-0.8-0.8h-51.2c-0.5,0-0.8,0.3-0.8,0.8v24H2144.5z"/>
</g>
<g>
	<path class="st1" d="M2240.1,636h-7v-2.9c0-0.2-0.2-0.4-0.3-0.4h-23.4c-0.2,0-0.4,0.2-0.4,0.4v7.8c0,0.2,0.2,0.4,0.4,0.4h23.4
		c4,0,7.4,3.3,7.4,7.4v7.8c0,4.1-3.3,7.4-7.4,7.4h-23.4c-4.1,0-7.4-3.3-7.4-7.4v-2.9h7v2.9c0,0.2,0.2,0.4,0.4,0.4h23.4
		c0.2,0,0.3-0.2,0.3-0.4v-7.8c0-0.2-0.2-0.4-0.3-0.4h-23.4c-4.1,0-7.4-3.3-7.4-7.4v-7.8c0-4.1,3.3-7.4,7.4-7.4h23.4
		c4,0,7.4,3.3,7.4,7.4V636z"/>
	<path class="st1" d="M2252.6,663.8h-6.9v-6.9h6.9V663.8z"/>
	<path class="st1" d="M2304.3,625.7c4.1,0,7.4,3.3,7.4,7.4v30.8h-7V651h-24.1v12.8h-7v-30.8c0-4.1,3.3-7.4,7.4-7.4H2304.3z
		 M2304.6,644v-11c0-0.2-0.2-0.4-0.4-0.4h-23.4c-0.2,0-0.4,0.2-0.4,0.4v11H2304.6z"/>
	<path class="st1" d="M2324.6,663.8h-6.9v-6.9h6.9V663.8z"/>
	<path class="st1" d="M2383.3,636h-7v-2.9c0-0.2-0.2-0.4-0.3-0.4h-23.4c-0.2,0-0.4,0.2-0.4,0.4v7.8c0,0.2,0.2,0.4,0.4,0.4h23.4
		c4,0,7.4,3.3,7.4,7.4v7.8c0,4.1-3.3,7.4-7.4,7.4h-23.4c-4.1,0-7.4-3.3-7.4-7.4v-2.9h7v2.9c0,0.2,0.2,0.4,0.4,0.4h23.4
		c0.2,0,0.3-0.2,0.3-0.4v-7.8c0-0.2-0.2-0.4-0.3-0.4h-23.4c-4.1,0-7.4-3.3-7.4-7.4v-7.8c0-4.1,3.3-7.4,7.4-7.4h23.4
		c4,0,7.4,3.3,7.4,7.4V636z"/>
	<path class="st1" d="M2395.8,663.8h-6.9v-6.9h6.9V663.8z"/>
</g>
<g>
</g>
<g>
</g>
<g>
</g>
<g>
</g>
<g>
</g>
<g>
</g>
<g>
</g>
</svg>
